<svg width="70" height="66" viewBox="0 0 70 66" fill="none" xmlns="http://www.w3.org/2000/svg">
<rect x="25" y="14" width="18" height="18" rx="5" fill="white"/>
<g filter="url(#filter0_d_184_1)">
<path fill-rule="evenodd" clip-rule="evenodd" d="M32.4921 24.8698L25.0485 17.1161C24.5799 16.628 23.8201 16.628 23.3515 17.1161C22.8828 17.6043 22.8828 18.3957 23.3515 18.8839L31.7515 27.6339C32.2602 28.1638 33.0991 28.1115 33.5436 27.5223L46.7435 10.0223C47.153 9.47949 47.0625 8.69367 46.5413 8.26715C46.0202 7.84064 45.2658 7.93494 44.8564 8.47777L32.4921 24.8698Z" fill="#25CF43"/>
<path d="M32.4738 24.562L25.1928 16.9776C24.6455 16.4075 23.7545 16.4075 23.2072 16.9776C22.6643 17.5432 22.6643 18.4569 23.2072 19.0224L31.6072 27.7724C32.202 28.3919 33.1853 28.3293 33.7032 27.6427L46.9032 10.1428C47.3763 9.51557 47.2735 8.60799 46.668 8.11238C46.0575 7.61272 45.1734 7.72538 44.6967 8.35734L32.4738 24.562Z" stroke="#25CF43" stroke-width="0.4"/>
</g>
<defs>
<filter id="filter0_d_184_1" x="0.600006" y="0.600098" width="68.8" height="64.7998" filterUnits="userSpaceOnUse" color-interpolation-filters="sRGB">
<feFlood flood-opacity="0" result="BackgroundImageFix"/>
<feColorMatrix in="SourceAlpha" type="matrix" values="0 0 0 0 0 0 0 0 0 0 0 0 0 0 0 0 0 0 127 0" result="hardAlpha"/>
<feOffset dy="15"/>
<feGaussianBlur stdDeviation="11"/>
<feColorMatrix type="matrix" values="0 0 0 0 0.145098 0 0 0 0 0.811765 0 0 0 0 0.262745 0 0 0 0.5 0"/>
<feBlend mode="normal" in2="BackgroundImageFix" result="effect1_dropShadow_184_1"/>
<feBlend mode="normal" in="SourceGraphic" in2="effect1_dropShadow_184_1" result="shape"/>
</filter>
</defs>
</svg>
